<svg xmlns="http://www.w3.org/2000/svg" width="737" height="171" viewBox="0 0 737 171">
<rect width="100%" height="100%" fill="#0d1117"/>

<style>
.cell { animation: drop 0.45s both; }
@keyframes drop { from { opacity: 0; transform: translateY(-9px); } to { opacity: 1; transform: translateY(0); } }
</style>
<text x="34" y="20" font-family="monospace" font-size="10" fill="#8b949e">Aug</text>
<text x="99" y="20" font-family="monospace" font-size="10" fill="#8b949e">Sep</text>
<text x="151" y="20" font-family="monospace" font-size="10" fill="#8b949e">Oct</text>
<text x="203" y="20" font-family="monospace" font-size="10" fill="#8b949e">Nov</text>
<text x="268" y="20" font-family="monospace" font-size="10" fill="#8b949e">Dec</text>
<text x="320" y="20" font-family="monospace" font-size="10" fill="#8b949e">Jan</text>
<text x="372" y="20" font-family="monospace" font-size="10" fill="#8b949e">Feb</text>
<text x="424" y="20" font-family="monospace" font-size="10" fill="#8b949e">Mar</text>
<text x="489" y="20" font-family="monospace" font-size="10" fill="#8b949e">Apr</text>
<text x="541" y="20" font-family="monospace" font-size="10" fill="#8b949e">May</text>
<text x="606" y="20" font-family="monospace" font-size="10" fill="#8b949e">Jun</text>
<text x="658" y="20" font-family="monospace" font-size="10" fill="#8b949e">Jul</text>
<text x="0" y="50" text-anchor="middle" font-family="monospace" font-size="10" fill="#8b949e">Mon</text><text x="0" y="76" text-anchor="middle" font-family="monospace" font-size="10" fill="#8b949e">Wed</text><text x="0" y="102" text-anchor="middle" font-family="monospace" font-size="10" fill="#8b949e">Fri</text>
<rect x="34" y="34" width="11" height="11" rx="2" fill="#161b22" class="cell" style="animation-delay:0.000s"/>
<rect x="34" y="47" width="11" height="11" rx="2" fill="#161b22" class="cell" style="animation-delay:0.012s"/>
<rect x="34" y="60" width="11" height="11" rx="2" fill="#161b22" class="cell" style="animation-delay:0.024s"/>
<rect x="34" y="73" width="11" height="11" rx="2" fill="#161b22" class="cell" style="animation-delay:0.036s"/>
<rect x="34" y="86" width="11" height="11" rx="2" fill="#161b22" class="cell" style="animation-delay:0.048s"/>
<rect x="34" y="99" width="11" height="11" rx="2" fill="#161b22" class="cell" style="animation-delay:0.060s"/>
<rect x="34" y="112" width="11" height="11" rx="2" fill="#161b22" class="cell" style="animation-delay:0.072s"/>
<rect x="47" y="34" width="11" height="11" rx="2" fill="#161b22" class="cell" style="animation-delay:0.012s"/>
<rect x="47" y="47" width="11" height="11" rx="2" fill="#161b22" class="cell" style="animation-delay:0.024s"/>
<rect x="47" y="60" width="11" height="11" rx="2" fill="#161b22" class="cell" style="animation-delay:0.036s"/>
<rect x="47" y="73" width="11" height="11" rx="2" fill="#161b22" class="cell" style="animation-delay:0.048s"/>
<rect x="47" y="86" width="11" height="11" rx="2" fill="#161b22" class="cell" style="animation-delay:0.060s"/>
<rect x="47" y="99" width="11" height="11" rx="2" fill="#161b22" class="cell" style="animation-delay:0.072s"/>
<rect x="47" y="112" width="11" height="11" rx="2" fill="#161b22" class="cell" style="animation-delay:0.084s"/>
<rect x="60" y="34" width="11" height="11" rx="2" fill="#161b22" class="cell" style="animation-delay:0.024s"/>
<rect x="60" y="47" width="11" height="11" rx="2" fill="#161b22" class="cell" style="animation-delay:0.036s"/>
<rect x="60" y="60" width="11" height="11" rx="2" fill="#161b22" class="cell" style="animation-delay:0.048s"/>
<rect x="60" y="73" width="11" height="11" rx="2" fill="#161b22" class="cell" style="animation-delay:0.060s"/>
<rect x="60" y="86" width="11" height="11" rx="2" fill="#161b22" class="cell" style="animation-delay:0.072s"/>
<rect x="60" y="99" width="11" height="11" rx="2" fill="#161b22" class="cell" style="animation-delay:0.084s"/>
<rect x="60" y="112" width="11" height="11" rx="2" fill="#161b22" class="cell" style="animation-delay:0.096s"/>
<rect x="73" y="34" width="11" height="11" rx="2" fill="#161b22" class="cell" style="animation-delay:0.036s"/>
<rect x="73" y="47" width="11" height="11" rx="2" fill="#161b22" class="cell" style="animation-delay:0.048s"/>
<rect x="73" y="60" width="11" height="11" rx="2" fill="#161b22" class="cell" style="animation-delay:0.060s"/>
<rect x="73" y="73" width="11" height="11" rx="2" fill="#161b22" class="cell" style="animation-delay:0.072s"/>
<rect x="73" y="86" width="11" height="11" rx="2" fill="#161b22" class="cell" style="animation-delay:0.084s"/>
<rect x="73" y="99" width="11" height="11" rx="2" fill="#161b22" class="cell" style="animation-delay:0.096s"/>
<rect x="73" y="112" width="11" height="11" rx="2" fill="#161b22" class="cell" style="animation-delay:0.108s"/>
<rect x="86" y="34" width="11" height="11" rx="2" fill="#161b22" class="cell" style="animation-delay:0.048s"/>
<rect x="86" y="47" width="11" height="11" rx="2" fill="#161b22" class="cell" style="animation-delay:0.060s"/>
<rect x="86" y="60" width="11" height="11" rx="2" fill="#161b22" class="cell" style="animation-delay:0.072s"/>
<rect x="86" y="73" width="11" height="11" rx="2" fill="#161b22" class="cell" style="animation-delay:0.084s"/>
<rect x="86" y="86" width="11" height="11" rx="2" fill="#161b22" class="cell" style="animation-delay:0.096s"/>
<rect x="86" y="99" width="11" height="11" rx="2" fill="#161b22" class="cell" style="animation-delay:0.108s"/>
<rect x="86" y="112" width="11" height="11" rx="2" fill="#161b22" class="cell" style="animation-delay:0.120s"/>
<rect x="99" y="34" width="11" height="11" rx="2" fill="#161b22" class="cell" style="animation-delay:0.060s"/>
<rect x="99" y="47" width="11" height="11" rx="2" fill="#161b22" class="cell" style="animation-delay:0.072s"/>
<rect x="99" y="60" width="11" height="11" rx="2" fill="#161b22" class="cell" style="animation-delay:0.084s"/>
<rect x="99" y="73" width="11" height="11" rx="2" fill="#161b22" class="cell" style="animation-delay:0.096s"/>
<rect x="99" y="86" width="11" height="11" rx="2" fill="#161b22" class="cell" style="animation-delay:0.108s"/>
<rect x="99" y="99" width="11" height="11" rx="2" fill="#161b22" class="cell" style="animation-delay:0.120s"/>
<rect x="99" y="112" width="11" height="11" rx="2" fill="#161b22" class="cell" style="animation-delay:0.132s"/>
<rect x="112" y="34" width="11" height="11" rx="2" fill="#161b22" class="cell" style="animation-delay:0.072s"/>
<rect x="112" y="47" width="11" height="11" rx="2" fill="#161b22" class="cell" style="animation-delay:0.084s"/>
<rect x="112" y="60" width="11" height="11" rx="2" fill="#161b22" class="cell" style="animation-delay:0.096s"/>
<rect x="112" y="73" width="11" height="11" rx="2" fill="#161b22" class="cell" style="animation-delay:0.108s"/>
<rect x="112" y="86" width="11" height="11" rx="2" fill="#161b22" class="cell" style="animation-delay:0.120s"/>
<rect x="112" y="99" width="11" height="11" rx="2" fill="#161b22" class="cell" style="animation-delay:0.132s"/>
<rect x="112" y="112" width="11" height="11" rx="2" fill="#161b22" class="cell" style="animation-delay:0.144s"/>
<rect x="125" y="34" width="11" height="11" rx="2" fill="#161b22" class="cell" style="animation-delay:0.084s"/>
<rect x="125" y="47" width="11" height="11" rx="2" fill="#161b22" class="cell" style="animation-delay:0.096s"/>
<rect x="125" y="60" width="11" height="11" rx="2" fill="#161b22" class="cell" style="animation-delay:0.108s"/>
<rect x="125" y="73" width="11" height="11" rx="2" fill="#161b22" class="cell" style="animation-delay:0.120s"/>
<rect x="125" y="86" width="11" height="11" rx="2" fill="#161b22" class="cell" style="animation-delay:0.132s"/>
<rect x="125" y="99" width="11" height="11" rx="2" fill="#161b22" class="cell" style="animation-delay:0.144s"/>
<rect x="125" y="112" width="11" height="11" rx="2" fill="#161b22" class="cell" style="animation-delay:0.156s"/>
<rect x="138" y="34" width="11" height="11" rx="2" fill="#161b22" class="cell" style="animation-delay:0.096s"/>
<rect x="138" y="47" width="11" height="11" rx="2" fill="#161b22" class="cell" style="animation-delay:0.108s"/>
<rect x="138" y="60" width="11" height="11" rx="2" fill="#161b22" class="cell" style="animation-delay:0.120s"/>
<rect x="138" y="73" width="11" height="11" rx="2" fill="#161b22" class="cell" style="animation-delay:0.132s"/>
<rect x="138" y="86" width="11" height="11" rx="2" fill="#161b22" class="cell" style="animation-delay:0.144s"/>
<rect x="138" y="99" width="11" height="11" rx="2" fill="#161b22" class="cell" style="animation-delay:0.156s"/>
<rect x="138" y="112" width="11" height="11" rx="2" fill="#161b22" class="cell" style="animation-delay:0.168s"/>
<rect x="151" y="34" width="11" height="11" rx="2" fill="#161b22" class="cell" style="animation-delay:0.108s"/>
<rect x="151" y="47" width="11" height="11" rx="2" fill="#161b22" class="cell" style="animation-delay:0.120s"/>
<rect x="151" y="60" width="11" height="11" rx="2" fill="#161b22" class="cell" style="animation-delay:0.132s"/>
<rect x="151" y="73" width="11" height="11" rx="2" fill="#161b22" class="cell" style="animation-delay:0.144s"/>
<rect x="151" y="86" width="11" height="11" rx="2" fill="#161b22" class="cell" style="animation-delay:0.156s"/>
<rect x="151" y="99" width="11" height="11" rx="2" fill="#161b22" class="cell" style="animation-delay:0.168s"/>
<rect x="151" y="112" width="11" height="11" rx="2" fill="#161b22" class="cell" style="animation-delay:0.180s"/>
<rect x="164" y="34" width="11" height="11" rx="2" fill="#161b22" class="cell" style="animation-delay:0.120s"/>
<rect x="164" y="47" width="11" height="11" rx="2" fill="#161b22" class="cell" style="animation-delay:0.132s"/>
<rect x="164" y="60" width="11" height="11" rx="2" fill="#161b22" class="cell" style="animation-delay:0.144s"/>
<rect x="164" y="73" width="11" height="11" rx="2" fill="#161b22" class="cell" style="animation-delay:0.156s"/>
<rect x="164" y="86" width="11" height="11" rx="2" fill="#161b22" class="cell" style="animation-delay:0.168s"/>
<rect x="164" y="99" width="11" height="11" rx="2" fill="#161b22" class="cell" style="animation-delay:0.180s"/>
<rect x="164" y="112" width="11" height="11" rx="2" fill="#161b22" class="cell" style="animation-delay:0.192s"/>
<rect x="177" y="34" width="11" height="11" rx="2" fill="#161b22" class="cell" style="animation-delay:0.132s"/>
<rect x="177" y="47" width="11" height="11" rx="2" fill="#161b22" class="cell" style="animation-delay:0.144s"/>
<rect x="177" y="60" width="11" height="11" rx="2" fill="#161b22" class="cell" style="animation-delay:0.156s"/>
<rect x="177" y="73" width="11" height="11" rx="2" fill="#161b22" class="cell" style="animation-delay:0.168s"/>
<rect x="177" y="86" width="11" height="11" rx="2" fill="#161b22" class="cell" style="animation-delay:0.180s"/>
<rect x="177" y="99" width="11" height="11" rx="2" fill="#161b22" class="cell" style="animation-delay:0.192s"/>
<rect x="177" y="112" width="11" height="11" rx="2" fill="#161b22" class="cell" style="animation-delay:0.204s"/>
<rect x="190" y="34" width="11" height="11" rx="2" fill="#161b22" class="cell" style="animation-delay:0.144s"/>
<rect x="190" y="47" width="11" height="11" rx="2" fill="#161b22" class="cell" style="animation-delay:0.156s"/>
<rect x="190" y="60" width="11" height="11" rx="2" fill="#161b22" class="cell" style="animation-delay:0.168s"/>
<rect x="190" y="73" width="11" height="11" rx="2" fill="#161b22" class="cell" style="animation-delay:0.180s"/>
<rect x="190" y="86" width="11" height="11" rx="2" fill="#161b22" class="cell" style="animation-delay:0.192s"/>
<rect x="190" y="99" width="11" height="11" rx="2" fill="#161b22" class="cell" style="animation-delay:0.204s"/>
<rect x="190" y="112" width="11" height="11" rx="2" fill="#161b22" class="cell" style="animation-delay:0.216s"/>
<rect x="203" y="34" width="11" height="11" rx="2" fill="#161b22" class="cell" style="animation-delay:0.156s"/>
<rect x="203" y="47" width="11" height="11" rx="2" fill="#161b22" class="cell" style="animation-delay:0.168s"/>
<rect x="203" y="60" width="11" height="11" rx="2" fill="#161b22" class="cell" style="animation-delay:0.180s"/>
<rect x="203" y="73" width="11" height="11" rx="2" fill="#161b22" class="cell" style="animation-delay:0.192s"/>
<rect x="203" y="86" width="11" height="11" rx="2" fill="#161b22" class="cell" style="animation-delay:0.204s"/>
<rect x="203" y="99" width="11" height="11" rx="2" fill="#161b22" class="cell" style="animation-delay:0.216s"/>
<rect x="203" y="112" width="11" height="11" rx="2" fill="#161b22" class="cell" style="animation-delay:0.228s"/>
<rect x="216" y="34" width="11" height="11" rx="2" fill="#161b22" class="cell" style="animation-delay:0.168s"/>
<rect x="216" y="47" width="11" height="11" rx="2" fill="#161b22" class="cell" style="animation-delay:0.180s"/>
<rect x="216" y="60" width="11" height="11" rx="2" fill="#161b22" class="cell" style="animation-delay:0.192s"/>
<rect x="216" y="73" width="11" height="11" rx="2" fill="#161b22" class="cell" style="animation-delay:0.204s"/>
<rect x="216" y="86" width="11" height="11" rx="2" fill="#161b22" class="cell" style="animation-delay:0.216s"/>
<rect x="216" y="99" width="11" height="11" rx="2" fill="#161b22" class="cell" style="animation-delay:0.228s"/>
<rect x="216" y="112" width="11" height="11" rx="2" fill="#161b22" class="cell" style="animation-delay:0.240s"/>
<rect x="229" y="34" width="11" height="11" rx="2" fill="#161b22" class="cell" style="animation-delay:0.180s"/>
<rect x="229" y="47" width="11" height="11" rx="2" fill="#161b22" class="cell" style="animation-delay:0.192s"/>
<rect x="229" y="60" width="11" height="11" rx="2" fill="#161b22" class="cell" style="animation-delay:0.204s"/>
<rect x="229" y="73" width="11" height="11" rx="2" fill="#161b22" class="cell" style="animation-delay:0.216s"/>
<rect x="229" y="86" width="11" height="11" rx="2" fill="#161b22" class="cell" style="animation-delay:0.228s"/>
<rect x="229" y="99" width="11" height="11" rx="2" fill="#161b22" class="cell" style="animation-delay:0.240s"/>
<rect x="229" y="112" width="11" height="11" rx="2" fill="#161b22" class="cell" style="animation-delay:0.252s"/>
<rect x="242" y="34" width="11" height="11" rx="2" fill="#161b22" class="cell" style="animation-delay:0.192s"/>
<rect x="242" y="47" width="11" height="11" rx="2" fill="#161b22" class="cell" style="animation-delay:0.204s"/>
<rect x="242" y="60" width="11" height="11" rx="2" fill="#161b22" class="cell" style="animation-delay:0.216s"/>
<rect x="242" y="73" width="11" height="11" rx="2" fill="#161b22" class="cell" style="animation-delay:0.228s"/>
<rect x="242" y="86" width="11" height="11" rx="2" fill="#161b22" class="cell" style="animation-delay:0.240s"/>
<rect x="242" y="99" width="11" height="11" rx="2" fill="#161b22" class="cell" style="animation-delay:0.252s"/>
<rect x="242" y="112" width="11" height="11" rx="2" fill="#161b22" class="cell" style="animation-delay:0.264s"/>
<rect x="255" y="34" width="11" height="11" rx="2" fill="#161b22" class="cell" style="animation-delay:0.204s"/>
<rect x="255" y="47" width="11" height="11" rx="2" fill="#161b22" class="cell" style="animation-delay:0.216s"/>
<rect x="255" y="60" width="11" height="11" rx="2" fill="#161b22" class="cell" style="animation-delay:0.228s"/>
<rect x="255" y="73" width="11" height="11" rx="2" fill="#161b22" class="cell" style="animation-delay:0.240s"/>
<rect x="255" y="86" width="11" height="11" rx="2" fill="#161b22" class="cell" style="animation-delay:0.252s"/>
<rect x="255" y="99" width="11" height="11" rx="2" fill="#161b22" class="cell" style="animation-delay:0.264s"/>
<rect x="255" y="112" width="11" height="11" rx="2" fill="#161b22" class="cell" style="animation-delay:0.276s"/>
<rect x="268" y="34" width="11" height="11" rx="2" fill="#161b22" class="cell" style="animation-delay:0.216s"/>
<rect x="268" y="47" width="11" height="11" rx="2" fill="#161b22" class="cell" style="animation-delay:0.228s"/>
<rect x="268" y="60" width="11" height="11" rx="2" fill="#161b22" class="cell" style="animation-delay:0.240s"/>
<rect x="268" y="73" width="11" height="11" rx="2" fill="#161b22" class="cell" style="animation-delay:0.252s"/>
<rect x="268" y="86" width="11" height="11" rx="2" fill="#161b22" class="cell" style="animation-delay:0.264s"/>
<rect x="268" y="99" width="11" height="11" rx="2" fill="#161b22" class="cell" style="animation-delay:0.276s"/>
<rect x="268" y="112" width="11" height="11" rx="2" fill="#161b22" class="cell" style="animation-delay:0.288s"/>
<rect x="281" y="34" width="11" height="11" rx="2" fill="#161b22" class="cell" style="animation-delay:0.228s"/>
<rect x="281" y="47" width="11" height="11" rx="2" fill="#161b22" class="cell" style="animation-delay:0.240s"/>
<rect x="281" y="60" width="11" height="11" rx="2" fill="#161b22" class="cell" style="animation-delay:0.252s"/>
<rect x="281" y="73" width="11" height="11" rx="2" fill="#161b22" class="cell" style="animation-delay:0.264s"/>
<rect x="281" y="86" width="11" height="11" rx="2" fill="#161b22" class="cell" style="animation-delay:0.276s"/>
<rect x="281" y="99" width="11" height="11" rx="2" fill="#161b22" class="cell" style="animation-delay:0.288s"/>
<rect x="281" y="112" width="11" height="11" rx="2" fill="#161b22" class="cell" style="animation-delay:0.300s"/>
<rect x="294" y="34" width="11" height="11" rx="2" fill="#161b22" class="cell" style="animation-delay:0.240s"/>
<rect x="294" y="47" width="11" height="11" rx="2" fill="#161b22" class="cell" style="animation-delay:0.252s"/>
<rect x="294" y="60" width="11" height="11" rx="2" fill="#161b22" class="cell" style="animation-delay:0.264s"/>
<rect x="294" y="73" width="11" height="11" rx="2" fill="#161b22" class="cell" style="animation-delay:0.276s"/>
<rect x="294" y="86" width="11" height="11" rx="2" fill="#161b22" class="cell" style="animation-delay:0.288s"/>
<rect x="294" y="99" width="11" height="11" rx="2" fill="#161b22" class="cell" style="animation-delay:0.300s"/>
<rect x="294" y="112" width="11" height="11" rx="2" fill="#161b22" class="cell" style="animation-delay:0.312s"/>
<rect x="307" y="34" width="11" height="11" rx="2" fill="#161b22" class="cell" style="animation-delay:0.252s"/>
<rect x="307" y="47" width="11" height="11" rx="2" fill="#161b22" class="cell" style="animation-delay:0.264s"/>
<rect x="307" y="60" width="11" height="11" rx="2" fill="#161b22" class="cell" style="animation-delay:0.276s"/>
<rect x="307" y="73" width="11" height="11" rx="2" fill="#161b22" class="cell" style="animation-delay:0.288s"/>
<rect x="307" y="86" width="11" height="11" rx="2" fill="#161b22" class="cell" style="animation-delay:0.300s"/>
<rect x="307" y="99" width="11" height="11" rx="2" fill="#161b22" class="cell" style="animation-delay:0.312s"/>
<rect x="307" y="112" width="11" height="11" rx="2" fill="#161b22" class="cell" style="animation-delay:0.324s"/>
<rect x="320" y="34" width="11" height="11" rx="2" fill="#161b22" class="cell" style="animation-delay:0.264s"/>
<rect x="320" y="47" width="11" height="11" rx="2" fill="#161b22" class="cell" style="animation-delay:0.276s"/>
<rect x="320" y="60" width="11" height="11" rx="2" fill="#161b22" class="cell" style="animation-delay:0.288s"/>
<rect x="320" y="73" width="11" height="11" rx="2" fill="#161b22" class="cell" style="animation-delay:0.300s"/>
<rect x="320" y="86" width="11" height="11" rx="2" fill="#161b22" class="cell" style="animation-delay:0.312s"/>
<rect x="320" y="99" width="11" height="11" rx="2" fill="#161b22" class="cell" style="animation-delay:0.324s"/>
<rect x="320" y="112" width="11" height="11" rx="2" fill="#161b22" class="cell" style="animation-delay:0.336s"/>
<rect x="333" y="34" width="11" height="11" rx="2" fill="#161b22" class="cell" style="animation-delay:0.276s"/>
<rect x="333" y="47" width="11" height="11" rx="2" fill="#161b22" class="cell" style="animation-delay:0.288s"/>
<rect x="333" y="60" width="11" height="11" rx="2" fill="#161b22" class="cell" style="animation-delay:0.300s"/>
<rect x="333" y="73" width="11" height="11" rx="2" fill="#161b22" class="cell" style="animation-delay:0.312s"/>
<rect x="333" y="86" width="11" height="11" rx="2" fill="#161b22" class="cell" style="animation-delay:0.324s"/>
<rect x="333" y="99" width="11" height="11" rx="2" fill="#161b22" class="cell" style="animation-delay:0.336s"/>
<rect x="333" y="112" width="11" height="11" rx="2" fill="#161b22" class="cell" style="animation-delay:0.348s"/>
<rect x="346" y="34" width="11" height="11" rx="2" fill="#161b22" class="cell" style="animation-delay:0.288s"/>
<rect x="346" y="47" width="11" height="11" rx="2" fill="#161b22" class="cell" style="animation-delay:0.300s"/>
<rect x="346" y="60" width="11" height="11" rx="2" fill="#161b22" class="cell" style="animation-delay:0.312s"/>
<rect x="346" y="73" width="11" height="11" rx="2" fill="#161b22" class="cell" style="animation-delay:0.324s"/>
<rect x="346" y="86" width="11" height="11" rx="2" fill="#161b22" class="cell" style="animation-delay:0.336s"/>
<rect x="346" y="99" width="11" height="11" rx="2" fill="#161b22" class="cell" style="animation-delay:0.348s"/>
<rect x="346" y="112" width="11" height="11" rx="2" fill="#161b22" class="cell" style="animation-delay:0.360s"/>
<rect x="359" y="34" width="11" height="11" rx="2" fill="#161b22" class="cell" style="animation-delay:0.300s"/>
<rect x="359" y="47" width="11" height="11" rx="2" fill="#161b22" class="cell" style="animation-delay:0.312s"/>
<rect x="359" y="60" width="11" height="11" rx="2" fill="#161b22" class="cell" style="animation-delay:0.324s"/>
<rect x="359" y="73" width="11" height="11" rx="2" fill="#161b22" class="cell" style="animation-delay:0.336s"/>
<rect x="359" y="86" width="11" height="11" rx="2" fill="#161b22" class="cell" style="animation-delay:0.348s"/>
<rect x="359" y="99" width="11" height="11" rx="2" fill="#161b22" class="cell" style="animation-delay:0.360s"/>
<rect x="359" y="112" width="11" height="11" rx="2" fill="#161b22" class="cell" style="animation-delay:0.372s"/>
<rect x="372" y="34" width="11" height="11" rx="2" fill="#161b22" class="cell" style="animation-delay:0.312s"/>
<rect x="372" y="47" width="11" height="11" rx="2" fill="#161b22" class="cell" style="animation-delay:0.324s"/>
<rect x="372" y="60" width="11" height="11" rx="2" fill="#161b22" class="cell" style="animation-delay:0.336s"/>
<rect x="372" y="73" width="11" height="11" rx="2" fill="#161b22" class="cell" style="animation-delay:0.348s"/>
<rect x="372" y="86" width="11" height="11" rx="2" fill="#161b22" class="cell" style="animation-delay:0.360s"/>
<rect x="372" y="99" width="11" height="11" rx="2" fill="#161b22" class="cell" style="animation-delay:0.372s"/>
<rect x="372" y="112" width="11" height="11" rx="2" fill="#161b22" class="cell" style="animation-delay:0.384s"/>
<rect x="385" y="34" width="11" height="11" rx="2" fill="#161b22" class="cell" style="animation-delay:0.324s"/>
<rect x="385" y="47" width="11" height="11" rx="2" fill="#161b22" class="cell" style="animation-delay:0.336s"/>
<rect x="385" y="60" width="11" height="11" rx="2" fill="#161b22" class="cell" style="animation-delay:0.348s"/>
<rect x="385" y="73" width="11" height="11" rx="2" fill="#161b22" class="cell" style="animation-delay:0.360s"/>
<rect x="385" y="86" width="11" height="11" rx="2" fill="#161b22" class="cell" style="animation-delay:0.372s"/>
<rect x="385" y="99" width="11" height="11" rx="2" fill="#161b22" class="cell" style="animation-delay:0.384s"/>
<rect x="385" y="112" width="11" height="11" rx="2" fill="#161b22" class="cell" style="animation-delay:0.396s"/>
<rect x="398" y="34" width="11" height="11" rx="2" fill="#161b22" class="cell" style="animation-delay:0.336s"/>
<rect x="398" y="47" width="11" height="11" rx="2" fill="#161b22" class="cell" style="animation-delay:0.348s"/>
<rect x="398" y="60" width="11" height="11" rx="2" fill="#161b22" class="cell" style="animation-delay:0.360s"/>
<rect x="398" y="73" width="11" height="11" rx="2" fill="#161b22" class="cell" style="animation-delay:0.372s"/>
<rect x="398" y="86" width="11" height="11" rx="2" fill="#161b22" class="cell" style="animation-delay:0.384s"/>
<rect x="398" y="99" width="11" height="11" rx="2" fill="#161b22" class="cell" style="animation-delay:0.396s"/>
<rect x="398" y="112" width="11" height="11" rx="2" fill="#161b22" class="cell" style="animation-delay:0.408s"/>
<rect x="411" y="34" width="11" height="11" rx="2" fill="#161b22" class="cell" style="animation-delay:0.348s"/>
<rect x="411" y="47" width="11" height="11" rx="2" fill="#161b22" class="cell" style="animation-delay:0.360s"/>
<rect x="411" y="60" width="11" height="11" rx="2" fill="#161b22" class="cell" style="animation-delay:0.372s"/>
<rect x="411" y="73" width="11" height="11" rx="2" fill="#161b22" class="cell" style="animation-delay:0.384s"/>
<rect x="411" y="86" width="11" height="11" rx="2" fill="#161b22" class="cell" style="animation-delay:0.396s"/>
<rect x="411" y="99" width="11" height="11" rx="2" fill="#161b22" class="cell" style="animation-delay:0.408s"/>
<rect x="411" y="112" width="11" height="11" rx="2" fill="#161b22" class="cell" style="animation-delay:0.420s"/>
<rect x="424" y="34" width="11" height="11" rx="2" fill="#161b22" class="cell" style="animation-delay:0.360s"/>
<rect x="424" y="47" width="11" height="11" rx="2" fill="#161b22" class="cell" style="animation-delay:0.372s"/>
<rect x="424" y="60" width="11" height="11" rx="2" fill="#161b22" class="cell" style="animation-delay:0.384s"/>
<rect x="424" y="73" width="11" height="11" rx="2" fill="#161b22" class="cell" style="animation-delay:0.396s"/>
<rect x="424" y="86" width="11" height="11" rx="2" fill="#161b22" class="cell" style="animation-delay:0.408s"/>
<rect x="424" y="99" width="11" height="11" rx="2" fill="#161b22" class="cell" style="animation-delay:0.420s"/>
<rect x="424" y="112" width="11" height="11" rx="2" fill="#161b22" class="cell" style="animation-delay:0.432s"/>
<rect x="437" y="34" width="11" height="11" rx="2" fill="#161b22" class="cell" style="animation-delay:0.372s"/>
<rect x="437" y="47" width="11" height="11" rx="2" fill="#161b22" class="cell" style="animation-delay:0.384s"/>
<rect x="437" y="60" width="11" height="11" rx="2" fill="#161b22" class="cell" style="animation-delay:0.396s"/>
<rect x="437" y="73" width="11" height="11" rx="2" fill="#161b22" class="cell" style="animation-delay:0.408s"/>
<rect x="437" y="86" width="11" height="11" rx="2" fill="#161b22" class="cell" style="animation-delay:0.420s"/>
<rect x="437" y="99" width="11" height="11" rx="2" fill="#161b22" class="cell" style="animation-delay:0.432s"/>
<rect x="437" y="112" width="11" height="11" rx="2" fill="#161b22" class="cell" style="animation-delay:0.444s"/>
<rect x="450" y="34" width="11" height="11" rx="2" fill="#161b22" class="cell" style="animation-delay:0.384s"/>
<rect x="450" y="47" width="11" height="11" rx="2" fill="#161b22" class="cell" style="animation-delay:0.396s"/>
<rect x="450" y="60" width="11" height="11" rx="2" fill="#161b22" class="cell" style="animation-delay:0.408s"/>
<rect x="450" y="73" width="11" height="11" rx="2" fill="#161b22" class="cell" style="animation-delay:0.420s"/>
<rect x="450" y="86" width="11" height="11" rx="2" fill="#161b22" class="cell" style="animation-delay:0.432s"/>
<rect x="450" y="99" width="11" height="11" rx="2" fill="#161b22" class="cell" style="animation-delay:0.444s"/>
<rect x="450" y="112" width="11" height="11" rx="2" fill="#161b22" class="cell" style="animation-delay:0.456s"/>
<rect x="463" y="34" width="11" height="11" rx="2" fill="#161b22" class="cell" style="animation-delay:0.396s"/>
<rect x="463" y="47" width="11" height="11" rx="2" fill="#161b22" class="cell" style="animation-delay:0.408s"/>
<rect x="463" y="60" width="11" height="11" rx="2" fill="#161b22" class="cell" style="animation-delay:0.420s"/>
<rect x="463" y="73" width="11" height="11" rx="2" fill="#161b22" class="cell" style="animation-delay:0.432s"/>
<rect x="463" y="86" width="11" height="11" rx="2" fill="#161b22" class="cell" style="animation-delay:0.444s"/>
<rect x="463" y="99" width="11" height="11" rx="2" fill="#161b22" class="cell" style="animation-delay:0.456s"/>
<rect x="463" y="112" width="11" height="11" rx="2" fill="#161b22" class="cell" style="animation-delay:0.468s"/>
<rect x="476" y="34" width="11" height="11" rx="2" fill="#161b22" class="cell" style="animation-delay:0.408s"/>
<rect x="476" y="47" width="11" height="11" rx="2" fill="#161b22" class="cell" style="animation-delay:0.420s"/>
<rect x="476" y="60" width="11" height="11" rx="2" fill="#161b22" class="cell" style="animation-delay:0.432s"/>
<rect x="476" y="73" width="11" height="11" rx="2" fill="#161b22" class="cell" style="animation-delay:0.444s"/>
<rect x="476" y="86" width="11" height="11" rx="2" fill="#161b22" class="cell" style="animation-delay:0.456s"/>
<rect x="476" y="99" width="11" height="11" rx="2" fill="#161b22" class="cell" style="animation-delay:0.468s"/>
<rect x="476" y="112" width="11" height="11" rx="2" fill="#161b22" class="cell" style="animation-delay:0.480s"/>
<rect x="489" y="34" width="11" height="11" rx="2" fill="#161b22" class="cell" style="animation-delay:0.420s"/>
<rect x="489" y="47" width="11" height="11" rx="2" fill="#161b22" class="cell" style="animation-delay:0.432s"/>
<rect x="489" y="60" width="11" height="11" rx="2" fill="#161b22" class="cell" style="animation-delay:0.444s"/>
<rect x="489" y="73" width="11" height="11" rx="2" fill="#161b22" class="cell" style="animation-delay:0.456s"/>
<rect x="489" y="86" width="11" height="11" rx="2" fill="#161b22" class="cell" style="animation-delay:0.468s"/>
<rect x="489" y="99" width="11" height="11" rx="2" fill="#161b22" class="cell" style="animation-delay:0.480s"/>
<rect x="489" y="112" width="11" height="11" rx="2" fill="#161b22" class="cell" style="animation-delay:0.492s"/>
<rect x="502" y="34" width="11" height="11" rx="2" fill="#161b22" class="cell" style="animation-delay:0.432s"/>
<rect x="502" y="47" width="11" height="11" rx="2" fill="#161b22" class="cell" style="animation-delay:0.444s"/>
<rect x="502" y="60" width="11" height="11" rx="2" fill="#161b22" class="cell" style="animation-delay:0.456s"/>
<rect x="502" y="73" width="11" height="11" rx="2" fill="#161b22" class="cell" style="animation-delay:0.468s"/>
<rect x="502" y="86" width="11" height="11" rx="2" fill="#161b22" class="cell" style="animation-delay:0.480s"/>
<rect x="502" y="99" width="11" height="11" rx="2" fill="#161b22" class="cell" style="animation-delay:0.492s"/>
<rect x="502" y="112" width="11" height="11" rx="2" fill="#161b22" class="cell" style="animation-delay:0.504s"/>
<rect x="515" y="34" width="11" height="11" rx="2" fill="#161b22" class="cell" style="animation-delay:0.444s"/>
<rect x="515" y="47" width="11" height="11" rx="2" fill="#161b22" class="cell" style="animation-delay:0.456s"/>
<rect x="515" y="60" width="11" height="11" rx="2" fill="#161b22" class="cell" style="animation-delay:0.468s"/>
<rect x="515" y="73" width="11" height="11" rx="2" fill="#161b22" class="cell" style="animation-delay:0.480s"/>
<rect x="515" y="86" width="11" height="11" rx="2" fill="#161b22" class="cell" style="animation-delay:0.492s"/>
<rect x="515" y="99" width="11" height="11" rx="2" fill="#161b22" class="cell" style="animation-delay:0.504s"/>
<rect x="515" y="112" width="11" height="11" rx="2" fill="#161b22" class="cell" style="animation-delay:0.516s"/>
<rect x="528" y="34" width="11" height="11" rx="2" fill="#161b22" class="cell" style="animation-delay:0.456s"/>
<rect x="528" y="47" width="11" height="11" rx="2" fill="#161b22" class="cell" style="animation-delay:0.468s"/>
<rect x="528" y="60" width="11" height="11" rx="2" fill="#161b22" class="cell" style="animation-delay:0.480s"/>
<rect x="528" y="73" width="11" height="11" rx="2" fill="#161b22" class="cell" style="animation-delay:0.492s"/>
<rect x="528" y="86" width="11" height="11" rx="2" fill="#161b22" class="cell" style="animation-delay:0.504s"/>
<rect x="528" y="99" width="11" height="11" rx="2" fill="#161b22" class="cell" style="animation-delay:0.516s"/>
<rect x="528" y="112" width="11" height="11" rx="2" fill="#161b22" class="cell" style="animation-delay:0.528s"/>
<rect x="541" y="34" width="11" height="11" rx="2" fill="#161b22" class="cell" style="animation-delay:0.468s"/>
<rect x="541" y="47" width="11" height="11" rx="2" fill="#161b22" class="cell" style="animation-delay:0.480s"/>
<rect x="541" y="60" width="11" height="11" rx="2" fill="#161b22" class="cell" style="animation-delay:0.492s"/>
<rect x="541" y="73" width="11" height="11" rx="2" fill="#161b22" class="cell" style="animation-delay:0.504s"/>
<rect x="541" y="86" width="11" height="11" rx="2" fill="#161b22" class="cell" style="animation-delay:0.516s"/>
<rect x="541" y="99" width="11" height="11" rx="2" fill="#161b22" class="cell" style="animation-delay:0.528s"/>
<rect x="541" y="112" width="11" height="11" rx="2" fill="#161b22" class="cell" style="animation-delay:0.540s"/>
<rect x="554" y="34" width="11" height="11" rx="2" fill="#161b22" class="cell" style="animation-delay:0.480s"/>
<rect x="554" y="47" width="11" height="11" rx="2" fill="#161b22" class="cell" style="animation-delay:0.492s"/>
<rect x="554" y="60" width="11" height="11" rx="2" fill="#161b22" class="cell" style="animation-delay:0.504s"/>
<rect x="554" y="73" width="11" height="11" rx="2" fill="#161b22" class="cell" style="animation-delay:0.516s"/>
<rect x="554" y="86" width="11" height="11" rx="2" fill="#161b22" class="cell" style="animation-delay:0.528s"/>
<rect x="554" y="99" width="11" height="11" rx="2" fill="#161b22" class="cell" style="animation-delay:0.540s"/>
<rect x="554" y="112" width="11" height="11" rx="2" fill="#161b22" class="cell" style="animation-delay:0.552s"/>
<rect x="567" y="34" width="11" height="11" rx="2" fill="#161b22" class="cell" style="animation-delay:0.492s"/>
<rect x="567" y="47" width="11" height="11" rx="2" fill="#161b22" class="cell" style="animation-delay:0.504s"/>
<rect x="567" y="60" width="11" height="11" rx="2" fill="#161b22" class="cell" style="animation-delay:0.516s"/>
<rect x="567" y="73" width="11" height="11" rx="2" fill="#161b22" class="cell" style="animation-delay:0.528s"/>
<rect x="567" y="86" width="11" height="11" rx="2" fill="#161b22" class="cell" style="animation-delay:0.540s"/>
<rect x="567" y="99" width="11" height="11" rx="2" fill="#161b22" class="cell" style="animation-delay:0.552s"/>
<rect x="567" y="112" width="11" height="11" rx="2" fill="#161b22" class="cell" style="animation-delay:0.564s"/>
<rect x="580" y="34" width="11" height="11" rx="2" fill="#161b22" class="cell" style="animation-delay:0.504s"/>
<rect x="580" y="47" width="11" height="11" rx="2" fill="#161b22" class="cell" style="animation-delay:0.516s"/>
<rect x="580" y="60" width="11" height="11" rx="2" fill="#161b22" class="cell" style="animation-delay:0.528s"/>
<rect x="580" y="73" width="11" height="11" rx="2" fill="#161b22" class="cell" style="animation-delay:0.540s"/>
<rect x="580" y="86" width="11" height="11" rx="2" fill="#161b22" class="cell" style="animation-delay:0.552s"/>
<rect x="580" y="99" width="11" height="11" rx="2" fill="#161b22" class="cell" style="animation-delay:0.564s"/>
<rect x="580" y="112" width="11" height="11" rx="2" fill="#161b22" class="cell" style="animation-delay:0.576s"/>
<rect x="593" y="34" width="11" height="11" rx="2" fill="#161b22" class="cell" style="animation-delay:0.516s"/>
<rect x="593" y="47" width="11" height="11" rx="2" fill="#161b22" class="cell" style="animation-delay:0.528s"/>
<rect x="593" y="60" width="11" height="11" rx="2" fill="#161b22" class="cell" style="animation-delay:0.540s"/>
<rect x="593" y="73" width="11" height="11" rx="2" fill="#161b22" class="cell" style="animation-delay:0.552s"/>
<rect x="593" y="86" width="11" height="11" rx="2" fill="#161b22" class="cell" style="animation-delay:0.564s"/>
<rect x="593" y="99" width="11" height="11" rx="2" fill="#161b22" class="cell" style="animation-delay:0.576s"/>
<rect x="593" y="112" width="11" height="11" rx="2" fill="#161b22" class="cell" style="animation-delay:0.588s"/>
<rect x="606" y="34" width="11" height="11" rx="2" fill="#161b22" class="cell" style="animation-delay:0.528s"/>
<rect x="606" y="47" width="11" height="11" rx="2" fill="#161b22" class="cell" style="animation-delay:0.540s"/>
<rect x="606" y="60" width="11" height="11" rx="2" fill="#161b22" class="cell" style="animation-delay:0.552s"/>
<rect x="606" y="73" width="11" height="11" rx="2" fill="#161b22" class="cell" style="animation-delay:0.564s"/>
<rect x="606" y="86" width="11" height="11" rx="2" fill="#161b22" class="cell" style="animation-delay:0.576s"/>
<rect x="606" y="99" width="11" height="11" rx="2" fill="#161b22" class="cell" style="animation-delay:0.588s"/>
<rect x="606" y="112" width="11" height="11" rx="2" fill="#161b22" class="cell" style="animation-delay:0.600s"/>
<rect x="619" y="34" width="11" height="11" rx="2" fill="#161b22" class="cell" style="animation-delay:0.540s"/>
<rect x="619" y="47" width="11" height="11" rx="2" fill="#161b22" class="cell" style="animation-delay:0.552s"/>
<rect x="619" y="60" width="11" height="11" rx="2" fill="#161b22" class="cell" style="animation-delay:0.564s"/>
<rect x="619" y="73" width="11" height="11" rx="2" fill="#161b22" class="cell" style="animation-delay:0.576s"/>
<rect x="619" y="86" width="11" height="11" rx="2" fill="#161b22" class="cell" style="animation-delay:0.588s"/>
<rect x="619" y="99" width="11" height="11" rx="2" fill="#161b22" class="cell" style="animation-delay:0.600s"/>
<rect x="619" y="112" width="11" height="11" rx="2" fill="#161b22" class="cell" style="animation-delay:0.612s"/>
<rect x="632" y="34" width="11" height="11" rx="2" fill="#161b22" class="cell" style="animation-delay:0.552s"/>
<rect x="632" y="47" width="11" height="11" rx="2" fill="#161b22" class="cell" style="animation-delay:0.564s"/>
<rect x="632" y="60" width="11" height="11" rx="2" fill="#161b22" class="cell" style="animation-delay:0.576s"/>
<rect x="632" y="73" width="11" height="11" rx="2" fill="#161b22" class="cell" style="animation-delay:0.588s"/>
<rect x="632" y="86" width="11" height="11" rx="2" fill="#161b22" class="cell" style="animation-delay:0.600s"/>
<rect x="632" y="99" width="11" height="11" rx="2" fill="#161b22" class="cell" style="animation-delay:0.612s"/>
<rect x="632" y="112" width="11" height="11" rx="2" fill="#161b22" class="cell" style="animation-delay:0.624s"/>
<rect x="645" y="34" width="11" height="11" rx="2" fill="#161b22" class="cell" style="animation-delay:0.564s"/>
<rect x="645" y="47" width="11" height="11" rx="2" fill="#161b22" class="cell" style="animation-delay:0.576s"/>
<rect x="645" y="60" width="11" height="11" rx="2" fill="#161b22" class="cell" style="animation-delay:0.588s"/>
<rect x="645" y="73" width="11" height="11" rx="2" fill="#161b22" class="cell" style="animation-delay:0.600s"/>
<rect x="645" y="86" width="11" height="11" rx="2" fill="#161b22" class="cell" style="animation-delay:0.612s"/>
<rect x="645" y="99" width="11" height="11" rx="2" fill="#161b22" class="cell" style="animation-delay:0.624s"/>
<rect x="645" y="112" width="11" height="11" rx="2" fill="#161b22" class="cell" style="animation-delay:0.636s"/>
<rect x="658" y="34" width="11" height="11" rx="2" fill="#161b22" class="cell" style="animation-delay:0.576s"/>
<rect x="658" y="47" width="11" height="11" rx="2" fill="#161b22" class="cell" style="animation-delay:0.588s"/>
<rect x="658" y="60" width="11" height="11" rx="2" fill="#161b22" class="cell" style="animation-delay:0.600s"/>
<rect x="658" y="73" width="11" height="11" rx="2" fill="#161b22" class="cell" style="animation-delay:0.612s"/>
<rect x="658" y="86" width="11" height="11" rx="2" fill="#161b22" class="cell" style="animation-delay:0.624s"/>
<rect x="658" y="99" width="11" height="11" rx="2" fill="#161b22" class="cell" style="animation-delay:0.636s"/>
<rect x="658" y="112" width="11" height="11" rx="2" fill="#161b22" class="cell" style="animation-delay:0.648s"/>
<rect x="671" y="34" width="11" height="11" rx="2" fill="#161b22" class="cell" style="animation-delay:0.588s"/>
<rect x="671" y="47" width="11" height="11" rx="2" fill="#161b22" class="cell" style="animation-delay:0.600s"/>
<rect x="671" y="60" width="11" height="11" rx="2" fill="#161b22" class="cell" style="animation-delay:0.612s"/>
<rect x="671" y="73" width="11" height="11" rx="2" fill="#161b22" class="cell" style="animation-delay:0.624s"/>
<rect x="671" y="86" width="11" height="11" rx="2" fill="#161b22" class="cell" style="animation-delay:0.636s"/>
<rect x="671" y="99" width="11" height="11" rx="2" fill="#161b22" class="cell" style="animation-delay:0.648s"/>
<rect x="671" y="112" width="11" height="11" rx="2" fill="#161b22" class="cell" style="animation-delay:0.660s"/>
<rect x="684" y="34" width="11" height="11" rx="2" fill="#161b22" class="cell" style="animation-delay:0.600s"/>
<rect x="684" y="47" width="11" height="11" rx="2" fill="#161b22" class="cell" style="animation-delay:0.612s"/>
<rect x="684" y="60" width="11" height="11" rx="2" fill="#161b22" class="cell" style="animation-delay:0.624s"/>
<rect x="684" y="73" width="11" height="11" rx="2" fill="#161b22" class="cell" style="animation-delay:0.636s"/>
<rect x="684" y="86" width="11" height="11" rx="2" fill="#161b22" class="cell" style="animation-delay:0.648s"/>
<rect x="684" y="99" width="11" height="11" rx="2" fill="#161b22" class="cell" style="animation-delay:0.660s"/>
<rect x="684" y="112" width="11" height="11" rx="2" fill="#161b22" class="cell" style="animation-delay:0.672s"/>
<rect x="697" y="34" width="11" height="11" rx="2" fill="#161b22" class="cell" style="animation-delay:0.612s"/>
<rect x="697" y="47" width="11" height="11" rx="2" fill="#161b22" class="cell" style="animation-delay:0.624s"/>
<rect x="697" y="60" width="11" height="11" rx="2" fill="#161b22" class="cell" style="animation-delay:0.636s"/>
<rect x="697" y="73" width="11" height="11" rx="2" fill="#161b22" class="cell" style="animation-delay:0.648s"/>
<rect x="697" y="86" width="11" height="11" rx="2" fill="#0e4429" class="cell" style="animation-delay:0.660s"/>
<rect x="697" y="99" width="11" height="11" rx="2" fill="#161b22" class="cell" style="animation-delay:0.672s"/>
<rect x="697" y="112" width="11" height="11" rx="2" fill="#161b22" class="cell" style="animation-delay:0.684s"/>
<rect x="710" y="34" width="11" height="11" rx="2" fill="#161b22" class="cell" style="animation-delay:0.624s"/>
<rect x="710" y="47" width="11" height="11" rx="2" fill="#161b22" class="cell" style="animation-delay:0.636s"/>
<rect x="710" y="60" width="11" height="11" rx="2" fill="#0e4429" class="cell" style="animation-delay:0.648s"/>
<rect x="710" y="73" width="11" height="11" rx="2" fill="#006d32" class="cell" style="animation-delay:0.660s"/>
<rect x="710" y="86" width="11" height="11" rx="2" fill="#39d353" class="cell" style="animation-delay:0.672s"/>
<rect x="710" y="99" width="11" height="11" rx="2" fill="#006d32" class="cell" style="animation-delay:0.684s"/>
<rect x="710" y="112" width="11" height="11" rx="2" fill="#161b22" class="cell" style="animation-delay:0.696s"/>
<text x="570" y="142" font-family="monospace" font-size="10" fill="#8b949e">Less</text><rect x="614" y="133" width="11" height="11" rx="2" fill="#161b22"/><rect x="631" y="133" width="11" height="11" rx="2" fill="#0e4429"/><rect x="648" y="133" width="11" height="11" rx="2" fill="#006d32"/><rect x="665" y="133" width="11" height="11" rx="2" fill="#26a641"/><rect x="682" y="133" width="11" height="11" rx="2" fill="#39d353"/><rect x="699" y="133" width="11" height="11" rx="2" fill="#69f0a0"/><text x="716" y="142" font-family="monospace" font-size="10" fill="#8b949e">More</text>
<text x="34" y="161" font-family="monospace" font-size="12" fill="#c9d1d9">33 contributions in the last year · best day 17 · current streak 0 · longest streak 4</text>
</svg>
